# xmcd
# 
# Track frame offsets:
#     180
#     21329
#     35654
#     59208
#     71380
#     78834
# 
# Disc length: 1220
# 
# Revision: 3
# Processed by: cddbd v1.5.2PL0 Copyright (c) Steve Scherf et al.
# Submitted via: fre:ac v1.0.17
# 
DISCID=4e04c206
DTITLE=Night In Gales - Sylphlike
DYEAR=1995
DGENRE=Death Metal
TTITLE0=Bleed Afresh
TTITLE1=Sylphlike
TTITLE2=Avoid Secret Vanity
TTITLE3=Mindspawn
TTITLE4=When The Lighning Starts
TTITLE5=Flowing Spring
EXTD=
EXTT0=
EXTT1=
EXTT2=
EXTT3=
EXTT4=
EXTT5=
PLAYORDER=
